<?xml version="1.0" encoding="UTF-8" standalone="no"?>
<!-- Created with Inkscape (http://www.inkscape.org/) -->
<svg
   xmlns:dc="http://purl.org/dc/elements/1.1/"
   xmlns:cc="http://creativecommons.org/ns#"
   xmlns:rdf="http://www.w3.org/1999/02/22-rdf-syntax-ns#"
   xmlns:svg="http://www.w3.org/2000/svg"
   xmlns="http://www.w3.org/2000/svg"
   xmlns:xlink="http://www.w3.org/1999/xlink"
   xmlns:sodipodi="http://sodipodi.sourceforge.net/DTD/sodipodi-0.dtd"
   xmlns:inkscape="http://www.inkscape.org/namespaces/inkscape"
   width="64px"
   height="64px"
   id="svg2842"
   sodipodi:version="0.32"
   inkscape:version="0.46+devel r20709"
   sodipodi:docname="icon.svg"
   inkscape:output_extension="org.inkscape.output.svg.inkscape"
   inkscape:export-filename="D:\ghorwin_svn\CXTSimFit\src\icon64_transparent.png"
   inkscape:export-xdpi="90"
   inkscape:export-ydpi="90">
  <defs
     id="defs2844">
    <linearGradient
       id="linearGradient3692">
      <stop
         style="stop-color:#232f61;stop-opacity:1;"
         offset="0"
         id="stop3694" />
      <stop
         style="stop-color:#000000;stop-opacity:0"
         offset="1"
         id="stop3696" />
    </linearGradient>
    <marker
       inkscape:stockid="Arrow2Mend"
       orient="auto"
       refY="0.0"
       refX="0.0"
       id="Arrow2Mend"
       style="overflow:visible;">
      <path
         id="path3840"
         style="font-size:12.0;fill-rule:evenodd;stroke-width:0.62500000;stroke-linejoin:round;"
         d="M 8.7185878,4.0337352 L -2.2072895,0.016013256 L 8.7185884,-4.0017078 C 6.9730900,-1.6296469 6.9831476,1.6157441 8.7185878,4.0337352 z "
         transform="scale(0.6) rotate(180) translate(0,0)" />
    </marker>
    <marker
       inkscape:stockid="Arrow1Mend"
       orient="auto"
       refY="0.0"
       refX="0.0"
       id="Arrow1Mend"
       style="overflow:visible;">
      <path
         id="path3822"
         d="M 0.0,0.0 L 5.0,-5.0 L -12.5,0.0 L 5.0,5.0 L 0.0,0.0 z "
         style="fill-rule:evenodd;stroke:#000000;stroke-width:1.0pt;marker-start:none;"
         transform="scale(0.4) rotate(180) translate(10,0)" />
    </marker>
    <marker
       inkscape:stockid="Arrow2Lend"
       orient="auto"
       refY="0.0"
       refX="0.0"
       id="Arrow2Lend"
       style="overflow:visible;">
      <path
         id="path3834"
         style="font-size:12.0;fill-rule:evenodd;stroke-width:0.62500000;stroke-linejoin:round;"
         d="M 8.7185878,4.0337352 L -2.2072895,0.016013256 L 8.7185884,-4.0017078 C 6.9730900,-1.6296469 6.9831476,1.6157441 8.7185878,4.0337352 z "
         transform="scale(1.1) rotate(180) translate(1,0)" />
    </marker>
    <marker
       inkscape:stockid="Arrow1Lend"
       orient="auto"
       refY="0.0"
       refX="0.0"
       id="Arrow1Lend"
       style="overflow:visible;">
      <path
         id="path3816"
         d="M 0.0,0.0 L 5.0,-5.0 L -12.5,0.0 L 5.0,5.0 L 0.0,0.0 z "
         style="fill-rule:evenodd;stroke:#000000;stroke-width:1.0pt;marker-start:none;"
         transform="scale(0.8) rotate(180) translate(12.5,0)" />
    </marker>
    <inkscape:perspective
       sodipodi:type="inkscape:persp3d"
       inkscape:vp_x="0 : 32 : 1"
       inkscape:vp_y="0 : 1000 : 0"
       inkscape:vp_z="64 : 32 : 1"
       inkscape:persp3d-origin="32 : 21.333333 : 1"
       id="perspective2850" />
    <inkscape:perspective
       id="perspective3670"
       inkscape:persp3d-origin="0.5 : 0.33333333 : 1"
       inkscape:vp_z="1 : 0.5 : 1"
       inkscape:vp_y="0 : 1000 : 0"
       inkscape:vp_x="0 : 0.5 : 1"
       sodipodi:type="inkscape:persp3d" />
    <filter
       inkscape:collect="always"
       id="filter3704">
      <feGaussianBlur
         inkscape:collect="always"
         stdDeviation="0.73841035"
         id="feGaussianBlur3706" />
    </filter>
    <inkscape:perspective
       id="perspective3718"
       inkscape:persp3d-origin="0.5 : 0.33333333 : 1"
       inkscape:vp_z="1 : 0.5 : 1"
       inkscape:vp_y="0 : 1000 : 0"
       inkscape:vp_x="0 : 0.5 : 1"
       sodipodi:type="inkscape:persp3d" />
    <inkscape:perspective
       id="perspective3718-4"
       inkscape:persp3d-origin="0.5 : 0.33333333 : 1"
       inkscape:vp_z="1 : 0.5 : 1"
       inkscape:vp_y="0 : 1000 : 0"
       inkscape:vp_x="0 : 0.5 : 1"
       sodipodi:type="inkscape:persp3d" />
    <inkscape:perspective
       id="perspective3718-9"
       inkscape:persp3d-origin="0.5 : 0.33333333 : 1"
       inkscape:vp_z="1 : 0.5 : 1"
       inkscape:vp_y="0 : 1000 : 0"
       inkscape:vp_x="0 : 0.5 : 1"
       sodipodi:type="inkscape:persp3d" />
    <inkscape:perspective
       id="perspective3718-8"
       inkscape:persp3d-origin="0.5 : 0.33333333 : 1"
       inkscape:vp_z="1 : 0.5 : 1"
       inkscape:vp_y="0 : 1000 : 0"
       inkscape:vp_x="0 : 0.5 : 1"
       sodipodi:type="inkscape:persp3d" />
    <inkscape:perspective
       id="perspective3718-2"
       inkscape:persp3d-origin="0.5 : 0.33333333 : 1"
       inkscape:vp_z="1 : 0.5 : 1"
       inkscape:vp_y="0 : 1000 : 0"
       inkscape:vp_x="0 : 0.5 : 1"
       sodipodi:type="inkscape:persp3d" />
    <inkscape:perspective
       id="perspective3718-5"
       inkscape:persp3d-origin="0.5 : 0.33333333 : 1"
       inkscape:vp_z="1 : 0.5 : 1"
       inkscape:vp_y="0 : 1000 : 0"
       inkscape:vp_x="0 : 0.5 : 1"
       sodipodi:type="inkscape:persp3d" />
    <inkscape:perspective
       id="perspective3718-7"
       inkscape:persp3d-origin="0.5 : 0.33333333 : 1"
       inkscape:vp_z="1 : 0.5 : 1"
       inkscape:vp_y="0 : 1000 : 0"
       inkscape:vp_x="0 : 0.5 : 1"
       sodipodi:type="inkscape:persp3d" />
    <inkscape:perspective
       id="perspective3718-52"
       inkscape:persp3d-origin="0.5 : 0.33333333 : 1"
       inkscape:vp_z="1 : 0.5 : 1"
       inkscape:vp_y="0 : 1000 : 0"
       inkscape:vp_x="0 : 0.5 : 1"
       sodipodi:type="inkscape:persp3d" />
    <inkscape:perspective
       id="perspective4844"
       inkscape:persp3d-origin="0.5 : 0.33333333 : 1"
       inkscape:vp_z="1 : 0.5 : 1"
       inkscape:vp_y="0 : 1000 : 0"
       inkscape:vp_x="0 : 0.5 : 1"
       sodipodi:type="inkscape:persp3d" />
    <inkscape:perspective
       id="perspective4909"
       inkscape:persp3d-origin="0.5 : 0.33333333 : 1"
       inkscape:vp_z="1 : 0.5 : 1"
       inkscape:vp_y="0 : 1000 : 0"
       inkscape:vp_x="0 : 0.5 : 1"
       sodipodi:type="inkscape:persp3d" />
    <filter
       inkscape:collect="always"
       id="filter4992"
       x="-0.04757556"
       width="1.0951511"
       y="-0.12414836"
       height="1.2482967">
      <feGaussianBlur
         inkscape:collect="always"
         stdDeviation="0.79557991"
         id="feGaussianBlur4994" />
    </filter>
    <radialGradient
       inkscape:collect="always"
       xlink:href="#linearGradient3692"
       id="radialGradient3698"
       cx="-59.514507"
       cy="54.833996"
       fx="-59.514507"
       fy="54.833996"
       r="31.818182"
       gradientTransform="matrix(-0.11842734,-2.819955,2.5458272,-0.12503231,-73.453285,-89.61244)"
       gradientUnits="userSpaceOnUse" />
    <inkscape:perspective
       id="perspective3756"
       inkscape:persp3d-origin="0.5 : 0.33333333 : 1"
       inkscape:vp_z="1 : 0.5 : 1"
       inkscape:vp_y="0 : 1000 : 0"
       inkscape:vp_x="0 : 0.5 : 1"
       sodipodi:type="inkscape:persp3d" />
    <filter
       inkscape:collect="always"
       id="filter3815"
       x="-0.049753572"
       width="1.0995071"
       y="-0.11142043"
       height="1.2228409">
      <feGaussianBlur
         inkscape:collect="always"
         stdDeviation="0.61857926"
         id="feGaussianBlur3817" />
    </filter>
  </defs>
  <sodipodi:namedview
     id="base"
     pagecolor="#ffffff"
     bordercolor="#666666"
     borderopacity="1.0"
     inkscape:pageopacity="0"
     inkscape:pageshadow="2"
     inkscape:zoom="5.5"
     inkscape:cx="-42.454545"
     inkscape:cy="32"
     inkscape:current-layer="layer1"
     showgrid="false"
     inkscape:document-units="px"
     inkscape:grid-bbox="true"
     inkscape:window-width="1680"
     inkscape:window-height="964"
     inkscape:window-x="0"
     inkscape:window-y="52">
    <inkscape:grid
       type="xygrid"
       id="grid2852"
       empspacing="5"
       visible="true"
       enabled="true" />
  </sodipodi:namedview>
  <metadata
     id="metadata2847">
    <rdf:RDF>
      <cc:Work
         rdf:about="">
        <dc:format>image/svg+xml</dc:format>
        <dc:type
           rdf:resource="http://purl.org/dc/dcmitype/StillImage" />
        <dc:title></dc:title>
      </cc:Work>
    </rdf:RDF>
  </metadata>
  <g
     id="layer1"
     inkscape:label="Layer 1"
     inkscape:groupmode="layer">
    <rect
       id="rect2894"
       width="66"
       height="67.090904"
       x="-0.72726995"
       y="-0.72727275"
       style="fill:url(#radialGradient3698);fill-opacity:1;opacity:0.73548387" />
    <path
       style="fill:none;stroke:#000000;stroke-width:2;stroke-miterlimit:4;stroke-opacity:1;stroke-dasharray:none;filter:url(#filter3704)"
       d="m 4.7272721,53.991467 c 1.2121212,0 2.4242425,0 3.6363637,0 0.262944,0 1.080729,0.0384 1.272727,0 0.132888,-0.02658 0.232164,-0.14895 0.363637,-0.181818 0.2351862,-0.0588 0.4895562,0.04754 0.7272722,0 0.187932,-0.03759 0.357524,-0.144232 0.545455,-0.181819 0.297146,-0.05943 0.611946,0.05943 0.909091,0 0.132888,-0.02658 0.242424,-0.121212 0.363637,-0.181818 0.181818,0 0.367167,0.03566 0.545454,0 0.132888,-0.02658 0.242424,-0.121212 0.363636,-0.181818 0.181819,-0.06061 0.356409,-0.150311 0.545455,-0.181818 0.179344,-0.02989 0.367167,0.03566 0.545455,0 0.132887,-0.02658 0.237809,-0.131488 0.363636,-0.181818 0.177945,-0.07118 0.357523,-0.144232 0.545454,-0.181819 0.118859,-0.02377 0.246044,0.0294 0.363637,0 0.131473,-0.03287 0.242424,-0.121212 0.363636,-0.181818 0.242424,-0.121212 0.47562,-0.262975 0.727273,-0.363636 0.177945,-0.07118 0.374035,-0.09611 0.545454,-0.181818 0.07666,-0.03833 0.105157,-0.143488 0.181819,-0.181818 0.366682,-0.183341 0.591355,-0.125335 0.909091,-0.363637 0.137135,-0.102852 0.216645,-0.275441 0.363636,-0.363636 0.164341,-0.0986 0.367509,-0.11064 0.545454,-0.181818 0.125827,-0.05033 0.242425,-0.121212 0.363637,-0.181819 0.121212,-0.06061 0.255221,-0.100506 0.363636,-0.181818 0.205704,-0.154278 0.33151,-0.402824 0.545455,-0.545454 0.19998,-0.13332 0.965606,-0.420152 1.090909,-0.545455 0.09583,-0.09583 0.08599,-0.26781 0.181818,-0.363636 0.06483,-0.446639 0.385989,-0.07551 0.545455,-0.181818 0.20979,-0.139861 0.335664,-0.405595 0.545454,-0.545455 1.318288,-0.659144 -0.28748,0.191653 0.545455,-0.363636 0.112758,-0.07517 0.250877,-0.106646 0.363636,-0.181818 0.07131,-0.04754 0.121212,-0.121213 0.181818,-0.181819 0.06061,-0.06061 0.134275,-0.110503 0.181818,-0.181818 0.07517,-0.112759 0.106646,-0.250877 0.181819,-0.363636 0.09509,-0.14263 0.268549,-0.221007 0.363636,-0.363637 0.07517,-0.112758 0.106646,-0.250877 0.181818,-0.363636 0.13986,-0.20979 0.405594,-0.335664 0.545455,-0.545454 0.07517,-0.112759 0.106645,-0.250878 0.181818,-0.363637 0.04754,-0.07131 0.134275,-0.110503 0.181818,-0.181818 0.07517,-0.112759 0.106646,-0.250878 0.181818,-0.363636 0.09509,-0.14263 0.26855,-0.221007 0.363637,-0.363637 0.137109,-0.205664 0.226527,-0.521608 0.363636,-0.727272 0.09509,-0.14263 0.26855,-0.221007 0.363636,-0.363637 0.5294,-0.794099 -0.08058,0.05993 0.181818,-0.727273 0.0271,-0.08131 0.134275,-0.110503 0.181819,-0.181818 0.283078,-0.424617 0.444194,-1.029928 0.727272,-1.454545 0.04754,-0.07131 0.143488,-0.105157 0.181819,-0.181818 0.0271,-0.05421 -0.01917,-0.124323 0,-0.181819 0.04285,-0.128564 0.121212,-0.242424 0.181818,-0.363636 0.128203,-0.256406 0.235433,-0.470866 0.363636,-0.727273 0.181818,-0.363636 0.363636,-0.727272 0.545455,-1.090909 0.121212,-0.242424 0.224188,-0.494859 0.363636,-0.727272 0.112427,-0.187378 0.265912,-0.350006 0.363636,-0.545455 0.17142,-0.34284 0.166427,-0.762227 0.363637,-1.090909 0.08819,-0.146991 0.260784,-0.226501 0.363636,-0.363636 0.162623,-0.216831 0.213291,-0.501755 0.363636,-0.727273 0.04754,-0.07131 0.134275,-0.110503 0.181819,-0.181818 0.07517,-0.112759 0.106645,-0.250878 0.181818,-0.363637 0.110341,-0.165512 0.464878,-0.384302 0.545454,-0.545454 0.0271,-0.05421 0,-0.121212 0,-0.181818 0.06061,-0.121213 0.106646,-0.250878 0.181819,-0.363637 0.135649,-0.203473 0.227987,-0.160163 0.363636,-0.363636 0.07517,-0.112759 0.08599,-0.26781 0.181818,-0.363637 0.09583,-0.09583 0.26781,-0.08599 0.363636,-0.181818 0.01165,-0.01165 0.341058,-0.693405 0.363637,-0.727272 0.04754,-0.07132 0.121212,-0.121213 0.181818,-0.181819 0.121212,-0.121212 0.242424,-0.242424 0.363636,-0.363636 0.303031,-0.30303 0.606061,-0.606061 0.909091,-0.909091 0.121212,-0.121212 0.260785,-0.2265 0.363637,-0.363636 0.08131,-0.108416 0.08599,-0.26781 0.181818,-0.363637 0.09583,-0.09583 0.255221,-0.100506 0.363636,-0.181818 0.205704,-0.154278 0.33151,-0.402824 0.545455,-0.545454 0.112759,-0.07517 0.267809,-0.08599 0.363636,-0.181819 0.242939,-0.242938 0.120698,-0.484334 0.363636,-0.727272 0.09583,-0.09583 0.26781,-0.08599 0.363637,-0.181818 0.09583,-0.09583 0.08599,-0.26781 0.181818,-0.363637 0.09583,-0.09583 0.26781,-0.08599 0.363636,-0.181818 0.09583,-0.09583 0.08599,-0.26781 0.181819,-0.363636 0.09583,-0.09583 0.267809,-0.08599 0.363636,-0.181819 0.09583,-0.09583 0.08599,-0.267809 0.181818,-0.363636 0.09583,-0.09583 0.255221,-0.100507 0.363636,-0.181818 C 39.660249,26.019007 39.786055,25.77046 40,25.62783 c 0.225518,-0.150345 0.510442,-0.201013 0.727273,-0.363636 0.205704,-0.154278 0.331509,-0.402825 0.545454,-0.545455 0.112759,-0.07517 0.242425,-0.121212 0.363637,-0.181818 0.242424,-0.121212 0.484848,-0.242424 0.727272,-0.363636 0.121212,-0.06061 0.255221,-0.100507 0.363637,-0.181818 0.137136,-0.102852 0.2265,-0.260785 0.363636,-0.363637 0.108416,-0.08131 0.242424,-0.121212 0.363636,-0.181818 0.852792,-0.426396 -0.214274,0.08571 0.909091,-0.363636 0.251653,-0.100661 0.47562,-0.262975 0.727273,-0.363637 0.177946,-0.07118 0.367509,-0.11064 0.545455,-0.181818 0.125826,-0.05033 0.23781,-0.131487 0.363636,-0.181818 0.177946,-0.07118 0.367509,-0.11064 0.545455,-0.181818 0.125826,-0.05033 0.232163,-0.14895 0.363636,-0.181818 0.117593,-0.0294 0.244778,0.02377 0.363636,0 0.187932,-0.03759 0.356409,-0.150311 0.545455,-0.181818 0.179344,-0.02989 0.367167,0.03566 0.545454,0 0.265776,-0.05316 0.461498,-0.310482 0.727273,-0.363637 0.178287,-0.03566 0.367167,0.03566 0.545455,0 0.132887,-0.02658 0.232163,-0.14895 0.363636,-0.181818 0.117593,-0.0294 0.246043,0.0294 0.363636,0 0.131473,-0.03287 0.230749,-0.155241 0.363637,-0.181818 0.178287,-0.03566 0.369065,0.0441 0.545454,0 0.08315,-0.02079 0.09867,-0.161031 0.181818,-0.181818 0.17639,-0.0441 0.367168,0.03566 0.545455,0 0.132888,-0.02658 0.232163,-0.14895 0.363636,-0.181819 0.117593,-0.0294 0.248645,0.03833 0.363637,0 0.08131,-0.0271 0.100506,-0.154714 0.181818,-0.181818 0.114992,-0.03833 0.246043,0.0294 0.363636,0 0.131473,-0.03287 0.232164,-0.14895 0.363637,-0.181818 0.235186,-0.0588 0.497289,0.07666 0.727272,0 0.08131,-0.0271 0.100507,-0.154714 0.181819,-0.181818 0.229983,-0.07666 0.492086,0.0588 0.727272,0 0.131473,-0.03287 0.235072,-0.138963 0.363637,-0.181818 0.0575,-0.01917 0.121212,0 0.181818,0 0.101483,0 0.825861,0.02774 0.909091,0 0.08131,-0.0271 0.100506,-0.154715 0.181818,-0.181818 0.114992,-0.03833 0.242424,0 0.363636,0 0.15606,0 0.984532,0.03546 1.090909,0 0.08131,-0.0271 0.100507,-0.154715 0.181819,-0.181819 0.08323,-0.02774 0.807607,0 0.90909,0 0.121213,0 0.248645,0.03833 0.363637,0 0.08131,-0.0271 0.100506,-0.154714 0.181818,-0.181818 0.123691,-0.04123 0.812684,0.0482 0.909091,0 0.07666,-0.03833 0.105157,-0.143487 0.181818,-0.181818 0.05421,-0.0271 0.121212,0 0.181818,0 0.06061,0 0.121212,0 0.181818,0 0.07188,0 0.83144,0.03883 0.909091,0 0.07666,-0.03833 0.121212,-0.121212 0.181819,-0.181818"
       id="path2860-1" />
    <g
       id="g3795"
       transform="translate(0,5.0909091)">
      <rect
         y="41.818184"
         x="3.2727273"
         height="2.7272727"
         width="2.7272727"
         id="rect3708"
         style="fill:#00003e;fill-opacity:1;stroke:none" />
      <rect
         y="47"
         x="13.909091"
         height="2.7272727"
         width="2.7272727"
         id="rect3708-7"
         style="fill:#00003e;fill-opacity:1;stroke:none" />
      <rect
         y="38.636364"
         x="19.545454"
         height="2.7272727"
         width="2.7272727"
         id="rect3708-0"
         style="fill:#00003e;fill-opacity:1;stroke:none" />
      <rect
         y="32.818184"
         x="30.636362"
         height="2.7272727"
         width="2.7272727"
         id="rect3708-4"
         style="fill:#00003e;fill-opacity:1;stroke:none" />
      <rect
         y="21.545452"
         x="30.636362"
         height="2.7272727"
         width="2.7272727"
         id="rect3708-8"
         style="fill:#00003e;fill-opacity:1;stroke:none" />
      <rect
         y="18.272728"
         x="42.090908"
         height="2.7272727"
         width="2.7272727"
         id="rect3708-45"
         style="fill:#00003e;fill-opacity:1;stroke:none" />
      <rect
         y="11"
         x="49.545452"
         height="2.7272727"
         width="2.7272727"
         id="rect3708-1"
         style="fill:#00003e;fill-opacity:1;stroke:none" />
      <rect
         y="12.636364"
         x="44.272728"
         height="2.7272727"
         width="2.7272727"
         id="rect3708-11"
         style="fill:#00003e;fill-opacity:1;stroke:none" />
      <rect
         y="19.727274"
         x="57.727272"
         height="2.7272727"
         width="2.7272727"
         id="rect3708-76"
         style="fill:#00003e;fill-opacity:1;stroke:none" />
    </g>
    <path
       style="fill:none;stroke:#870000;stroke-width:2;stroke-miterlimit:4;stroke-opacity:1;stroke-dasharray:none"
       d="m 3.2727272,52.909091 c 1.2121212,0 2.4242425,0 3.6363637,0 0.2629442,0 1.0807293,0.0384 1.2727272,0 0.1328876,-0.02658 0.2321634,-0.14895 0.3636364,-0.181818 0.2351861,-0.0588 0.4895562,0.04754 0.7272727,0 0.1879314,-0.03759 0.3575232,-0.144232 0.5454546,-0.181819 0.2971462,-0.05943 0.6119462,0.05943 0.9090912,0 0.132888,-0.02658 0.242424,-0.121212 0.363637,-0.181818 0.181818,0 0.367167,0.03566 0.545454,0 C 11.769252,52.337056 11.878788,52.242424 12,52.181818 12.181819,52.121208 12.356409,52.031507 12.545455,52 c 0.179344,-0.02989 0.367167,0.03566 0.545455,0 0.132887,-0.02658 0.237809,-0.131488 0.363636,-0.181818 0.177945,-0.07118 0.357523,-0.144232 0.545454,-0.181819 0.118859,-0.02377 0.246044,0.0294 0.363637,0 0.131473,-0.03287 0.242424,-0.121212 0.363636,-0.181818 0.242424,-0.121212 0.47562,-0.262975 0.727273,-0.363636 0.177945,-0.07118 0.374035,-0.09611 0.545454,-0.181818 0.07666,-0.03833 0.105157,-0.143488 0.181819,-0.181818 0.366682,-0.183341 0.591355,-0.125335 0.909091,-0.363637 C 17.228045,50.260784 17.307555,50.088195 17.454546,50 17.618887,49.9014 17.822055,49.88936 18,49.818182 c 0.125827,-0.05033 0.242425,-0.121212 0.363637,-0.181819 0.121212,-0.06061 0.255221,-0.100506 0.363636,-0.181818 0.205704,-0.154278 0.33151,-0.402824 0.545455,-0.545454 0.19998,-0.13332 0.965606,-0.420152 1.090909,-0.545455 0.09583,-0.09583 0.08599,-0.26781 0.181818,-0.363636 0.06483,-0.446639 0.385989,-0.07551 0.545455,-0.181818 0.20979,-0.139861 0.335664,-0.405595 0.545454,-0.545455 1.318288,-0.659144 -0.28748,0.191653 0.545455,-0.363636 0.112758,-0.07517 0.250877,-0.106646 0.363636,-0.181818 0.07131,-0.04754 0.121212,-0.121213 0.181818,-0.181819 0.06061,-0.06061 0.134275,-0.110503 0.181818,-0.181818 0.07517,-0.112759 0.106646,-0.250877 0.181819,-0.363636 0.09509,-0.14263 0.268549,-0.221007 0.363636,-0.363637 0.07517,-0.112758 0.106646,-0.250877 0.181818,-0.363636 0.13986,-0.20979 0.405594,-0.335664 0.545455,-0.545454 0.07517,-0.112759 0.106645,-0.250878 0.181818,-0.363637 0.04754,-0.07131 0.134275,-0.110503 0.181818,-0.181818 0.07517,-0.112759 0.106646,-0.250878 0.181818,-0.363636 0.09509,-0.14263 0.26855,-0.221007 0.363637,-0.363637 0.137109,-0.205664 0.226527,-0.521608 0.363636,-0.727272 0.09509,-0.14263 0.26855,-0.221007 0.363636,-0.363637 0.5294,-0.794099 -0.08058,0.05993 0.181818,-0.727273 0.0271,-0.08131 0.134275,-0.110503 0.181819,-0.181818 0.283078,-0.424617 0.444194,-1.029928 0.727272,-1.454545 0.04754,-0.07131 0.143488,-0.105157 0.181819,-0.181818 0.0271,-0.05421 -0.01917,-0.124323 0,-0.181819 0.04285,-0.128564 0.121212,-0.242424 0.181818,-0.363636 0.128203,-0.256406 0.235433,-0.470866 0.363636,-0.727273 0.181818,-0.363636 0.363636,-0.727272 0.545455,-1.090909 0.121212,-0.242424 0.224188,-0.494859 0.363636,-0.727272 0.112427,-0.187378 0.265912,-0.350006 0.363636,-0.545455 0.17142,-0.34284 0.166427,-0.762227 0.363637,-1.090909 0.08819,-0.146991 0.260784,-0.226501 0.363636,-0.363636 C 29.798987,34.510442 29.849655,34.225518 30,34 c 0.04754,-0.07131 0.134275,-0.110503 0.181819,-0.181818 0.07517,-0.112759 0.106645,-0.250878 0.181818,-0.363637 0.110341,-0.165512 0.464878,-0.384302 0.545454,-0.545454 0.0271,-0.05421 0,-0.121212 0,-0.181818 0.06061,-0.121213 0.106646,-0.250878 0.181819,-0.363637 0.135649,-0.203473 0.227987,-0.160163 0.363636,-0.363636 0.07517,-0.112759 0.08599,-0.26781 0.181818,-0.363637 0.09583,-0.09583 0.26781,-0.08599 0.363636,-0.181818 0.01165,-0.01165 0.341058,-0.693405 0.363637,-0.727272 0.04754,-0.07132 0.121212,-0.121213 0.181818,-0.181819 0.121212,-0.121212 0.242424,-0.242424 0.363636,-0.363636 0.303031,-0.30303 0.606061,-0.606061 0.909091,-0.909091 0.121212,-0.121212 0.260785,-0.2265 0.363637,-0.363636 0.08131,-0.108416 0.08599,-0.26781 0.181818,-0.363637 0.09583,-0.09583 0.255221,-0.100506 0.363636,-0.181818 0.205704,-0.154278 0.33151,-0.402824 0.545455,-0.545454 0.112759,-0.07517 0.267809,-0.08599 0.363636,-0.181819 0.242939,-0.242938 0.120698,-0.484334 0.363636,-0.727272 0.09583,-0.09583 0.26781,-0.08599 0.363637,-0.181818 0.09583,-0.09583 0.08599,-0.26781 0.181818,-0.363637 0.09583,-0.09583 0.26781,-0.08599 0.363636,-0.181818 0.09583,-0.09583 0.08599,-0.26781 0.181819,-0.363636 0.09583,-0.09583 0.267809,-0.08599 0.363636,-0.181819 0.09583,-0.09583 0.08599,-0.267809 0.181818,-0.363636 0.09583,-0.09583 0.255221,-0.100507 0.363636,-0.181818 0.205704,-0.154278 0.33151,-0.402825 0.545455,-0.545455 0.225518,-0.150345 0.510442,-0.201013 0.727273,-0.363636 0.205704,-0.154278 0.331509,-0.402825 0.545454,-0.545455 0.112759,-0.07517 0.242425,-0.121212 0.363637,-0.181818 0.242424,-0.121212 0.484848,-0.242424 0.727272,-0.363636 0.121212,-0.06061 0.255221,-0.100507 0.363637,-0.181818 0.137136,-0.102852 0.2265,-0.260785 0.363636,-0.363637 C 41.74478,22.464144 41.878788,22.424242 42,22.363636 42.852792,21.93724 41.785726,22.449346 42.909091,22 c 0.251653,-0.100661 0.47562,-0.262975 0.727273,-0.363637 0.177946,-0.07118 0.367509,-0.11064 0.545455,-0.181818 0.125826,-0.05033 0.23781,-0.131487 0.363636,-0.181818 0.177946,-0.07118 0.367509,-0.11064 0.545455,-0.181818 0.125826,-0.05033 0.232163,-0.14895 0.363636,-0.181818 0.117593,-0.0294 0.244778,0.02377 0.363636,0 0.187932,-0.03759 0.356409,-0.150311 0.545455,-0.181818 0.179344,-0.02989 0.367167,0.03566 0.545454,0 0.265776,-0.05316 0.461498,-0.310482 0.727273,-0.363637 0.178287,-0.03566 0.367167,0.03566 0.545455,0 0.132887,-0.02658 0.232163,-0.14895 0.363636,-0.181818 0.117593,-0.0294 0.246043,0.0294 0.363636,0 0.131473,-0.03287 0.230749,-0.155241 0.363637,-0.181818 0.178287,-0.03566 0.369065,0.0441 0.545454,0 0.08315,-0.02079 0.09867,-0.161031 0.181818,-0.181818 0.17639,-0.0441 0.367168,0.03566 0.545455,0 0.132888,-0.02658 0.232163,-0.14895 0.363636,-0.181819 0.117593,-0.0294 0.248645,0.03833 0.363637,0 0.08131,-0.0271 0.100506,-0.154714 0.181818,-0.181818 0.114992,-0.03833 0.246043,0.0294 0.363636,0 0.131473,-0.03287 0.232164,-0.14895 0.363637,-0.181818 0.235186,-0.0588 0.497289,0.07666 0.727272,0 0.08131,-0.0271 0.100507,-0.154714 0.181819,-0.181818 0.229983,-0.07666 0.492086,0.0588 0.727272,0 0.131473,-0.03287 0.235072,-0.138963 0.363637,-0.181818 0.0575,-0.01917 0.121212,0 0.181818,0 0.101483,0 0.825861,0.02774 0.909091,0 0.08131,-0.0271 0.100506,-0.154715 0.181818,-0.181818 0.114992,-0.03833 0.242424,0 0.363636,0 0.15606,0 0.984532,0.03546 1.090909,0 0.08131,-0.0271 0.100507,-0.154715 0.181819,-0.181819 0.08323,-0.02774 0.807607,0 0.90909,0 0.121213,0 0.248645,0.03833 0.363637,0 0.08131,-0.0271 0.100506,-0.154714 0.181818,-0.181818 0.123691,-0.04123 0.812684,0.0482 0.909091,0 0.07666,-0.03833 0.105157,-0.143487 0.181818,-0.181818 0.05421,-0.0271 0.121212,0 0.181818,0 0.06061,0 0.121212,0 0.181818,0 0.07188,0 0.83144,0.03883 0.909091,0 C 60.985751,18.143488 61.030303,18.060606 61.09091,18"
       id="path2860" />
    <text
       xml:space="preserve"
       style="font-size:20.77709389000000000px;fill:#000000;fill-opacity:1;filter:url(#filter4992)"
       x="2.7164457"
       y="18.345423"
       id="text4832-2"><tspan
         sodipodi:role="line"
         id="tspan4834-3"
         x="2.7164457"
         y="18.345423"
         style="font-weight:bold;fill:#000000;fill-opacity:1;-inkscape-font-specification:Sans Bold">CXT</tspan></text>
    <text
       xml:space="preserve"
       style="font-size:20.77709389px;fill:#000073;fill-opacity:1"
       x="1.4806509"
       y="17.516499"
       id="text4832"><tspan
         sodipodi:role="line"
         id="tspan4834"
         x="1.4806509"
         y="17.516499"
         style="font-weight:bold;-inkscape-font-specification:Sans Bold">CXT</tspan></text>
    <flowRoot
       xml:space="preserve"
       id="flowRoot2944"
       style="font-size:12px;font-style:normal;font-weight:normal;fill:#000000;fill-opacity:1;stroke:none;font-family:Bitstream Vera Sans;filter:url(#filter3815)"
       transform="matrix(1.0778771,0,0,1.0778771,-3.853829,-4.5424133)"><flowRegion
         id="flowRegion2946"><rect
           id="rect2948"
           width="36"
           height="19.818182"
           x="30"
           y="44.727272"
           style="fill:#000000;fill-opacity:1" /></flowRegion><flowPara
         id="flowPara2950"
         style="font-size:18px;fill:#000000;fill-opacity:1">SIM</flowPara></flowRoot>    <flowRoot
       xml:space="preserve"
       id="flowRoot2944-1"
       style="font-size:12px;font-style:normal;font-weight:normal;fill:#000073;fill-opacity:1;stroke:none;font-family:Bitstream Vera Sans"
       transform="matrix(1.0778771,0,0,1.0778771,-4.9255571,-5.6506571)"><flowRegion
         id="flowRegion2946-7"><rect
           id="rect2948-4"
           width="36"
           height="19.818182"
           x="30"
           y="44.727272"
           style="fill:#000073;fill-opacity:1" /></flowRegion><flowPara
         id="flowPara2950-0"
         style="font-size:18px;fill:#000073;fill-opacity:1">SIM</flowPara></flowRoot>  </g>
</svg>
